<?xml version="1.0" encoding="utf-8"?>
<!-- Generator: Adobe Illustrator 16.0.3, SVG Export Plug-In . SVG Version: 6.00 Build 0)  -->
<!DOCTYPE svg PUBLIC "-//W3C//DTD SVG 1.1//EN" "http://www.w3.org/Graphics/SVG/1.1/DTD/svg11.dtd">
<svg version="1.1" id="Layer_1" xmlns="http://www.w3.org/2000/svg" xmlns:xlink="http://www.w3.org/1999/xlink" x="0px" y="0px"
	 width="200px" height="200px" viewBox="0 0 200 200" enable-background="new 0 0 200 200" xml:space="preserve">
<rect x="32" y="99" fill="#FFFFFF" width="163" height="69"/>
<polygon fill="#85D5F6" points="163.563,41.867 147.406,15.111 37.26,70.183 "/>
<polygon fill="#85D5F6" points="175.723,73.311 175.723,43.951 37.782,73.485 "/>
<path fill="#1896D3" d="M163.103,131.951c0,4.356,3.531,7.888,7.89,7.888c4.356,0,7.889-3.531,7.889-7.888
	c0-4.357-3.532-7.889-7.889-7.889C166.634,124.063,163.103,127.594,163.103,131.951"/>
<path fill="#1896D3" d="M21.301,70.082c0-4.871,3.986-8.855,8.857-8.855h15.143l18.645-9.323H27.264
	c-7.435,0-13.518,6.082-13.518,13.517c0,7.435,6.083,13.517,13.518,13.517h2.895C25.288,78.937,21.301,74.953,21.301,70.082"/>
<path fill="#48A1D9" d="M81.25,142.56L81.25,142.56c0.007-0.021,0.015-0.043,0.023-0.063
	C81.266,142.517,81.258,142.538,81.25,142.56"/>
<path fill="#48A1D9" d="M81.983,123.232c0.011,0.033,0.022,0.067,0.034,0.102C82.006,123.3,81.995,123.266,81.983,123.232z"/>
<path fill="#48A1D9" d="M80.693,143.924c0.019-0.042,0.035-0.086,0.053-0.128l0,0C80.728,143.838,80.712,143.882,80.693,143.924"/>
<path fill="#48A1D9" d="M69.982,123.971c-0.124-0.262-0.252-0.519-0.389-0.771c-0.083-0.155-0.165-0.309-0.252-0.458
	c-0.21-0.362-0.43-0.715-0.667-1.057c-0.075-0.108-0.158-0.212-0.236-0.317c-0.191-0.263-0.389-0.519-0.596-0.768
	c-0.104-0.125-0.211-0.25-0.32-0.372c-0.247-0.278-0.505-0.548-0.774-0.806c-0.068-0.064-0.133-0.135-0.203-0.198
	c-0.313-0.291-0.644-0.565-0.986-0.83c-0.116-0.09-0.235-0.176-0.354-0.263c-0.294-0.212-0.598-0.415-0.911-0.607
	c-0.096-0.061-0.188-0.124-0.286-0.181c-0.401-0.233-0.82-0.45-1.253-0.649c-0.117-0.056-0.237-0.102-0.355-0.151
	c-0.356-0.154-0.723-0.295-1.098-0.423c-0.126-0.045-0.25-0.09-0.379-0.129c-0.483-0.152-0.98-0.285-1.496-0.395
	c-0.09-0.019-0.185-0.031-0.276-0.049c-0.445-0.088-0.903-0.156-1.373-0.209c-0.15-0.017-0.301-0.033-0.454-0.048
	c-0.566-0.05-1.144-0.084-1.745-0.084h-5.417v33.195h5.417c14.044,0,18.913-14.147,14.619-23.971
	C70.131,124.274,70.055,124.124,69.982,123.971"/>
<path fill="#48A1D9" d="M82.867,136.321c0.007-0.048,0.019-0.098,0.025-0.146C82.886,136.224,82.874,136.273,82.867,136.321z"/>
<path fill="#48A1D9" d="M82.6,137.863L82.6,137.863c0.004-0.018,0.007-0.034,0.009-0.051
	C82.607,137.829,82.604,137.846,82.6,137.863"/>
<polyline fill="#48A1D9" points="83.078,134.566 83.078,134.563 83.078,134.564 83.078,134.566 "/>
<path fill="#48A1D9" d="M170.045,118.434h24.635v-23.83c0-8.618-7.051-15.669-15.668-15.669h-151.8
	c-7.411-0.028-13.465-6.096-13.465-13.514c0-5.122,2.887-9.601,7.115-11.894c-8.525,3.38-14.604,11.705-14.604,21.396v19.68v41.28
	v34.385c0,8.615,7.051,15.666,15.668,15.666h157.086c8.617,0,15.668-7.051,15.668-15.666v-24.801h-24.635
	c-7.434,0-13.518-6.083-13.518-13.518C156.527,124.517,162.611,118.434,170.045,118.434 M108.918,160.396h-2.011L96.77,135.867
	l-10.06,24.759h-1.934l-5.554-13.835c-4.336,7.348-12.214,12.676-23.643,12.676H39.098v-55.324v-0.002h16.481
	c0.6,0,1.19,0.018,1.77,0.045c0.072,0.004,0.142,0.012,0.214,0.017c0.518,0.03,1.03,0.068,1.532,0.118
	c0.015,0.002,0.028,0.005,0.042,0.006c1.122,0.117,2.204,0.289,3.247,0.512c0.002,0,0.004,0,0.006,0.002
	c0.548,0.117,1.086,0.249,1.613,0.394c0.021,0.006,0.044,0.011,0.065,0.016c0.025,0.008,0.049,0.018,0.074,0.025
	c0.485,0.134,0.96,0.282,1.428,0.441c0.024,0.008,0.051,0.015,0.075,0.022c0.005,0.001,0.009,0.002,0.014,0.004
	c0.016,0.005,0.031,0.013,0.046,0.021c0.883,0.305,1.733,0.647,2.548,1.03c0.021,0.011,0.042,0.021,0.063,0.03
	c0.818,0.388,1.605,0.81,2.356,1.27c0.018,0.01,0.035,0.021,0.053,0.03c0.75,0.461,1.468,0.955,2.15,1.479
	c0.016,0.013,0.032,0.024,0.047,0.038c0.685,0.528,1.336,1.089,1.953,1.677c0.004,0.005,0.008,0.008,0.012,0.012
	c0.009,0.009,0.017,0.018,0.025,0.026c1.023,0.98,1.952,2.04,2.786,3.161v0.001c1.209,1.629,2.218,3.393,3.029,5.246l0,0
	c0.293,0.668,0.562,1.347,0.802,2.036c0-0.003,0-0.004,0-0.004l4.177,10.588l8.753-13.836h4.702l8.751,13.836l11.144-28.243h12.458
	L108.918,160.396z"/>
<path fill="#48A1D9" d="M83.19,131.166c0.001,0.053,0.005,0.104,0.007,0.158C83.196,131.271,83.191,131.218,83.19,131.166z"/>
<path fill="#48A1D9" d="M83.136,129.861c0,0.001,0,0.003,0,0.004c-0.002-0.045-0.005-0.091-0.008-0.135
	C83.131,129.773,83.134,129.816,83.136,129.861"/>
</svg>
